#!OML:ASF F:\VICON\USERDATA\INSTALL\Justin_Nancy\Justin_Nancy.ASF
:FULLY-SPECIFIED
:DEGREES
205
root 0.379717 17.2046 -12.4004 3.43788 -1.30968 4.4637
lowerback 6.27383 -2.3271 -4.89821
upperback 0.449417 -3.37845 2.15333
thorax -2.63667 -1.61988 5.26439
lowerneck -15.9849 -4.37489 -9.83283
upperneck 20.8161 -5.27795 7.33281
head 9.69101 -2.43515 3.50084
rclavicle 9.54166e-015 -2.38542e-015
rhumerus -34.184 -17.8076 -74.4379
rradius 27.1949
rwrist 8.17256
rhand -14.6718 12.8171
rfingers 7.12502
rthumb 11.4813 -16.8485
lclavicle 9.54166e-015 -2.38542e-015
lhumerus -25.3192 3.77682 84.7719
lradius 29.819
lwrist -10.2298
lhand -12.0125 25.6254
lfingers 7.12502
lthumb 14.045 55.1309
rfemur -33.2495 1.41905 17.8322
rtibia 30.6014
rfoot -1.77122 -1.6819
rtoes 1.89023
lfemur 12.3462 -4.81232 -28.0267
ltibia 28.2071
lfoot 2.31905 -4.17974
ltoes -20.5246
206
root 0.352442 17.2254 -12.1894 3.38371 -1.03225 4.35085
lowerback 6.18981 -2.37082 -4.87757
upperback 0.446056 -3.42899 2.24986
thorax -2.58203 -1.64691 5.35264
lowerneck -15.9486 -4.38893 -9.78936
upperneck 20.8574 -5.31327 7.32511
head 9.70063 -2.44983 3.48695
rclavicle -2.48481e-014 1.03368e-014
rhumerus -34.4091 -18.4981 -73.8707
rradius 26.7142
rwrist 8.58925
rhand -14.6494 12.648
rfingers 7.12502
rthumb 11.5029 -17.0164
lclavicle -2.48481e-014 1.03368e-014
lhumerus -25.5272 3.58823 85.0772
lradius 29.552
lwrist -10.1545
lhand -11.6857 25.7201
lfingers 7.12502
lthumb 14.3599 55.2034
rfemur -32.6482 1.4331 18.055
rtibia 31.2575
rfoot -2.21698 -1.8282
rtoes 2.27313
lfemur 11.3358 -4.98442 -27.7501
ltibia 30.1703
lfoot 5.39908 -4.90624
ltoes -21.5317
207
root 0.327347 17.25 -11.98 3.38437 -0.827477 4.27661
lowerback 6.04735 -2.39887 -4.83067
upperback 0.477087 -3.45544 2.29873
thorax -2.46643 -1.66516 5.36972
lowerneck -16.1994 -4.40497 -9.46847
upperneck 20.9626 -5.3289 7.02379
head 9.76801 -2.45969 3.32284
rclavicle 2.24627e-014 3.18055e-014
rhumerus -34.5347 -19.163 -73.3981
rradius 26.2348
rwrist 8.90719
rhand -14.4751 12.6964
rfingers 7.12502
rthumb 11.671 -16.9586
lclavicle 2.24627e-014 3.18055e-014
lhumerus -25.6791 3.2712 85.3668
lradius 29.4154
lwrist -10.0585
lhand -11.3952 26.13
lfingers 7.12502
lthumb 14.6398 55.5932
rfemur -31.9699 1.40425 18.2396
rtibia 31.6742
rfoot -2.6029 -1.84056
rtoes 4.1692
lfemur 10.0397 -5.11313 -27.5246
ltibia 32.321
lfoot 8.65684 -5.76968
ltoes -21.6606
208
root 0.296224 17.272 -11.7766 3.3788 -0.817491 3.8805
lowerback 5.98427 -2.37825 -4.6147
upperback 0.371322 -3.4066 2.49199
thorax -2.54779 -1.63752 5.44704
lowerneck -15.9375 -4.39532 -9.44595
upperneck 21.0148 -5.32822 6.93561
head 9.73421 -2.47295 3.29136
rclavicle 1.59028e-015 -3.18055e-015
rhumerus -34.8656 -19.6944 -72.7919
rradius 25.6577
rwrist 9.50635
rhand -14.4244 12.6094
rfingers 7.12502
rthumb 11.7199 -17.0427
lclavicle 1.59028e-015 -3.18055e-015
lhumerus -26.237 3.13695 85.6279
lradius 29.4156
lwrist -10.102
lhand -11.4557 26.1725
lfingers 7.12502
lthumb 14.5815 55.64
rfemur -31.2406 1.59576 18.8314
rtibia 31.8671
rfoot -2.08723 -1.55017
rtoes -0.263972
lfemur 8.86015 -5.3078 -26.9319
ltibia 34.589
lfoot 11.0547 -6.15952
ltoes -17.5886
209
root 0.266178 17.295 -11.5807 3.36102 -0.858429 3.22678
lowerback 5.99129 -2.32145 -4.11683
upperback 0.248696 -3.2913 2.72575
thorax -2.70764 -1.57712 5.4072
lowerneck -15.5838 -4.35986 -9.48411
upperneck 21.0826 -5.31616 6.97543
head 9.69285 -2.47371 3.31843
rclavicle -4.02539e-014 1.27222e-014
rhumerus -35.2342 -19.9209 -72.3576
rradius 25.3026
rwrist 9.87621
rhand -14.4651 12.0913
rfingers 7.12502
rthumb 11.6806 -17.5631
lclavicle -4.02539e-014 1.27222e-014
lhumerus -26.7778 2.90171 85.8759
lradius 29.4382
lwrist -10.1645
lhand -11.4431 25.9982
lfingers 7.12502
lthumb 14.5936 55.4648
rfemur -30.4556 1.91047 19.6961
rtibia 31.8637
rfoot -2.90826 -2.2171
rtoes 6.13347
lfemur 7.74688 -5.30235 -26.0095
ltibia 36.9271
lfoot 13.5378 -6.89597
ltoes -12.0261
210
root 0.242911 17.324 -11.3819 3.30544 -0.810303 2.85244
lowerback 6.04284 -2.27982 -3.77688
upperback 0.184592 -3.21043 2.84204
thorax -2.82477 -1.5356 5.33601
lowerneck -15.566 -4.35519 -9.45791
upperneck 21.2822 -5.33887 7.01576
head 9.76219 -2.47911 3.32843
rclavicle 3.93594e-014 -2.38542e-015
rhumerus -35.4766 -20.4422 -71.8788
rradius 24.8475
rwrist 10.4868
rhand -14.4164 12.3452
rfingers 7.12502
rthumb 11.7276 -17.3065
lclavicle 3.93594e-014 -2.38542e-015
lhumerus -27.035 2.44474 86.1726
lradius 29.259
lwrist -10.2269
lhand -11.4541 25.7495
lfingers 7.12502
lthumb 14.583 55.2168
rfemur -29.5343 1.92892 20.2529
rtibia 31.7512
rfoot -2.67631 -1.67699
rtoes -1.28343
lfemur 6.56419 -5.19351 -25.4057
ltibia 39.3021
lfoot 16.3853 -7.94339
ltoes -7.38741
211
root 0.218712 17.3589 -11.1829 3.19547 -0.757084 2.4901
lowerback 6.15556 -2.2213 -3.4084
upperback 0.147387 -3.10729 2.89991
thorax -2.95497 -1.48413 5.18779
lowerneck -15.6948 -4.43301 -9.45168
upperneck 21.5328 -5.49137 7.17643
head 9.89383 -2.52995 3.36585
rclavicle 3.29983e-014 1.51076e-014
rhumerus -35.7887 -20.9664 -71.4692
rradius 24.4226
rwrist 11.0323
rhand -14.2755 13.1666
rfingers 7.12502
rthumb 11.8635 -16.4774
lclavicle 3.29983e-014 1.51076e-014
lhumerus -27.3297 1.84232 86.415
lradius 29.1726
lwrist -10.2639
lhand -11.8122 24.6651
lfingers 7.12502
lthumb 14.2379 54.157
rfemur -28.4477 2.10908 20.7532
rtibia 31.5298
rfoot -3.05691 -1.70094
rtoes -3.3483
lfemur 5.32557 -5.13805 -24.8394
ltibia 41.679
lfoot 17.4231 -8.81579
ltoes -6.26375
